<svg width="22" height="22" viewBox="0 0 22 22" fill="none" xmlns="http://www.w3.org/2000/svg">
<g clip-path="url(#clip0_50_1290)">
<path fill-rule="evenodd" clip-rule="evenodd" d="M10.8 2.19994C8.97746 2.19994 7.5 3.6774 7.5 5.49994C7.5 7.32248 8.97746 8.79994 10.8 8.79994C12.6225 8.79994 14.1 7.32247 14.1 5.49994C14.1 3.67741 12.6225 2.19994 10.8 2.19994ZM5.3 5.49994C5.3 2.46237 7.76243 -6.10352e-05 10.8 -6.10352e-05C13.8375 -6.10352e-05 16.3 2.46236 16.3 5.49994C16.3 8.53751 13.8375 10.9999 10.8 10.9999C7.76243 10.9999 5.3 8.53751 5.3 5.49994ZM10.8 14.2999C7.15492 14.2999 4.2 17.2549 4.2 20.8999C4.2 21.5075 3.70751 21.9999 3.1 21.9999C2.49249 21.9999 2 21.5075 2 20.8999C2 16.0398 5.9399 12.0999 10.8 12.0999C15.6601 12.0999 19.6 16.0398 19.6 20.8999C19.6 21.5075 19.1075 21.9999 18.5 21.9999C17.8925 21.9999 17.4 21.5075 17.4 20.8999C17.4 17.2549 14.4451 14.2999 10.8 14.2999Z" fill="black"/>
</g>
<defs>
<clipPath id="clip0_50_1290">
<rect width="22" height="22" fill="white"/>
</clipPath>
</defs>
</svg>
